<svg width="239" height="142" viewBox="0 0 239 142" fill="none" xmlns="http://www.w3.org/2000/svg">
<path d="M155.313 92.819V96.5006H138.315C134.437 96.5006 133.106 97.284 133.106 100.104V111.463C133.106 114.282 134.515 115.027 138.315 115.027H155.313V118.709H136.905C130.051 118.709 127.74 117.612 127.74 112.52V99.0074C127.74 93.9543 130.05 92.819 136.905 92.819H155.313ZM176.62 92.819L188.801 118.709H183.122L180.851 113.539H165.81L163.577 118.709H157.702L169.884 92.819H176.62ZM196.948 92.819V115.027H213.163V118.709H191.581V92.819H196.948ZM221.701 92.819V115.027H237.917V118.709H216.335V92.819H221.701ZM167.376 109.974H179.283L173.291 96.3834L167.376 109.974Z" fill="url(#paint0_linear_16_4563)"/>
<path fill-rule="evenodd" clip-rule="evenodd" d="M68.8435 9.71747C97.1595 9.71747 120.767 29.8725 126.108 56.6175V90.6704C138.298 90.3411 148.078 80.3571 148.078 68.0879C148.078 58.4789 142.078 50.2723 133.621 47.0071C124.734 19.7213 99.093 -3.05176e-05 68.8428 -3.05176e-05C31.2232 -3.05176e-05 0.725098 30.4981 0.725098 68.1177C0.725098 104.369 29.0464 134.002 64.7689 136.11V126.374C34.417 124.282 10.4426 99 10.4426 68.1177C10.4426 35.8647 36.5898 9.71747 68.8428 9.71747H68.8435Z" fill="white"/>
<path fill-rule="evenodd" clip-rule="evenodd" d="M45.8247 53.7954C50.7105 53.7954 54.6713 57.7562 54.6713 62.6414C54.6713 67.5273 50.7105 71.4881 45.8247 71.4881C40.9395 71.4881 36.978 67.5273 36.978 62.6414C36.978 57.7562 40.9388 53.7954 45.8247 53.7954Z" fill="url(#paint1_linear_16_4563)"/>
<path fill-rule="evenodd" clip-rule="evenodd" d="M94.2475 53.7954C99.1333 53.7954 103.094 57.7562 103.094 62.6414C103.094 67.5273 99.1333 71.4881 94.2475 71.4881C89.3623 71.4881 85.4015 67.5273 85.4015 62.6414C85.4015 57.7562 89.3623 53.7954 94.2475 53.7954Z" fill="url(#paint2_linear_16_4563)"/>
<path fill-rule="evenodd" clip-rule="evenodd" d="M68.9005 121.268C74.4872 121.268 79.0167 125.797 79.0167 131.383C79.0167 136.97 74.4872 141.499 68.9005 141.499C63.3137 141.499 58.7849 136.97 58.7849 131.383C58.7849 125.797 63.3144 121.268 68.9005 121.268Z" fill="url(#paint3_linear_16_4563)"/>
<path d="M102.488 136.195C101.768 136.195 101.123 136.067 100.554 135.812C99.9843 135.556 99.538 135.201 99.214 134.746C98.8906 134.292 98.7233 133.767 98.7128 133.172H100.232C100.285 133.684 100.496 134.114 100.866 134.465C101.237 134.814 101.778 134.99 102.488 134.99C103.167 134.99 103.702 134.82 104.093 134.481C104.485 134.141 104.681 133.705 104.681 133.173C104.681 132.755 104.566 132.416 104.337 132.154C104.106 131.893 103.819 131.695 103.475 131.559C103.13 131.423 102.666 131.277 102.081 131.12C101.36 130.932 100.783 130.744 100.35 130.556C99.9162 130.368 99.5459 130.073 99.2378 129.671C98.9296 129.269 98.7756 128.729 98.7756 128.05C98.7756 127.455 98.927 126.927 99.2299 126.468C99.5327 126.008 99.9585 125.653 100.507 125.402C101.055 125.152 101.684 125.026 102.395 125.026C103.418 125.026 104.256 125.282 104.909 125.794C105.561 126.306 105.929 126.985 106.013 127.831H104.446C104.394 127.413 104.175 127.044 103.788 126.726C103.402 126.408 102.89 126.249 102.253 126.249C101.658 126.249 101.172 126.403 100.796 126.711C100.42 127.019 100.232 127.45 100.232 128.004C100.232 128.4 100.345 128.724 100.569 128.975C100.793 129.226 101.07 129.416 101.399 129.547C101.728 129.677 102.19 129.827 102.786 129.993C103.507 130.192 104.086 130.388 104.524 130.581C104.963 130.774 105.339 131.071 105.652 131.474C105.966 131.876 106.123 132.421 106.123 133.111C106.123 133.643 105.982 134.145 105.7 134.615C105.418 135.085 105 135.466 104.447 135.759C103.894 136.051 103.241 136.197 102.489 136.197L102.488 136.195ZM120.366 136.195C119.353 136.195 118.428 135.958 117.593 135.482C116.757 135.007 116.097 134.344 115.611 133.493C115.126 132.642 114.883 131.684 114.883 130.618C114.883 129.553 115.125 128.595 115.611 127.744C116.097 126.893 116.757 126.23 117.593 125.754C118.429 125.279 119.353 125.041 120.366 125.041C121.389 125.041 122.318 125.279 123.154 125.754C123.99 126.23 124.647 126.89 125.128 127.736C125.608 128.582 125.849 129.542 125.849 130.618C125.849 131.694 125.608 132.655 125.128 133.501C124.648 134.346 123.99 135.007 123.154 135.482C122.318 135.957 121.389 136.195 120.366 136.195ZM120.366 134.957C121.128 134.957 121.814 134.78 122.425 134.425C123.036 134.07 123.517 133.563 123.866 132.905C124.216 132.248 124.391 131.485 124.391 130.618C124.391 129.741 124.217 128.976 123.866 128.324C123.516 127.671 123.039 127.167 122.433 126.812C121.828 126.457 121.138 126.279 120.366 126.279C119.593 126.279 118.904 126.457 118.298 126.812C117.692 127.167 117.214 127.671 116.864 128.324C116.515 128.976 116.339 129.741 116.339 130.618C116.339 131.485 116.515 132.248 116.864 132.905C117.214 133.563 117.695 134.07 118.306 134.425C118.916 134.78 119.603 134.957 120.366 134.957ZM136.347 134.926H140.169V136.085H134.921V125.167H136.347V134.926ZM150.276 125.167V132.075C150.276 133.046 150.514 133.767 150.989 134.237C151.465 134.707 152.125 134.941 152.971 134.941C153.807 134.941 154.462 134.707 154.937 134.237C155.412 133.766 155.65 133.046 155.65 132.075V125.167H157.075V132.059C157.075 132.968 156.893 133.733 156.527 134.354C156.161 134.976 155.668 135.438 155.047 135.741C154.425 136.044 153.728 136.195 152.955 136.195C152.182 136.195 151.485 136.044 150.864 135.741C150.242 135.438 149.751 134.976 149.391 134.354C149.031 133.733 148.851 132.968 148.851 132.059V125.167H150.276ZM173.37 125.167V126.326H170.394V136.085H168.968V126.326H165.976V125.167H173.369H173.37ZM183.744 125.167V136.085H182.319V125.167H183.744ZM198.316 136.195C197.303 136.195 196.378 135.958 195.543 135.482C194.707 135.007 194.048 134.344 193.562 133.493C193.076 132.642 192.833 131.684 192.833 130.618C192.833 129.553 193.076 128.595 193.562 127.744C194.047 126.893 194.707 126.23 195.543 125.754C196.379 125.279 197.303 125.041 198.316 125.041C199.339 125.041 200.268 125.279 201.104 125.754C201.94 126.23 202.597 126.89 203.078 127.736C203.559 128.582 203.799 129.542 203.799 130.618C203.799 131.694 203.559 132.655 203.078 133.501C202.598 134.346 201.94 135.007 201.104 135.482C200.268 135.957 199.339 136.195 198.316 136.195ZM198.316 134.957C199.078 134.957 199.765 134.78 200.376 134.425C200.987 134.07 201.467 133.563 201.816 132.905C202.166 132.248 202.341 131.485 202.341 130.618C202.341 129.741 202.167 128.976 201.816 128.324C201.467 127.671 200.989 127.167 200.383 126.812C199.778 126.457 199.088 126.279 198.316 126.279C197.543 126.279 196.854 126.457 196.248 126.812C195.642 127.167 195.164 127.671 194.815 128.324C194.465 128.976 194.29 129.741 194.29 130.618C194.29 131.485 194.465 132.248 194.815 132.905C195.164 133.563 195.645 134.07 196.256 134.425C196.866 134.78 197.553 134.957 198.316 134.957ZM221.456 136.085H220.031L214.297 127.391V136.085H212.872V125.152H214.297L220.031 133.83V125.152H221.456V136.085ZM234.54 136.195C233.819 136.195 233.175 136.067 232.605 135.812C232.036 135.556 231.59 135.201 231.266 134.746C230.942 134.292 230.775 133.767 230.765 133.172H232.284C232.336 133.684 232.548 134.114 232.918 134.465C233.289 134.814 233.829 134.99 234.54 134.99C235.219 134.99 235.754 134.82 236.145 134.481C236.536 134.141 236.733 133.705 236.733 133.173C236.733 132.755 236.618 132.416 236.388 132.154C236.158 131.893 235.871 131.695 235.527 131.559C235.182 131.423 234.717 131.277 234.133 131.12C233.412 130.932 232.835 130.744 232.402 130.556C231.968 130.368 231.598 130.073 231.29 129.671C230.981 129.269 230.827 128.729 230.827 128.05C230.827 127.455 230.979 126.927 231.282 126.468C231.584 126.008 232.01 125.653 232.558 125.402C233.107 125.152 233.736 125.026 234.446 125.026C235.47 125.026 236.308 125.282 236.96 125.794C237.613 126.306 237.981 126.985 238.065 127.831H236.498C236.446 127.413 236.227 127.044 235.84 126.726C235.454 126.408 234.942 126.249 234.305 126.249C233.71 126.249 233.224 126.403 232.848 126.711C232.472 127.019 232.284 127.45 232.284 128.004C232.284 128.4 232.396 128.724 232.621 128.975C232.845 129.226 233.122 129.416 233.451 129.547C233.78 129.677 234.242 129.827 234.838 129.993C235.559 130.192 236.138 130.388 236.576 130.581C237.015 130.774 237.391 131.071 237.704 131.474C238.018 131.876 238.174 132.421 238.174 133.111C238.174 133.643 238.034 134.145 237.752 134.615C237.469 135.085 237.052 135.466 236.499 135.759C235.945 136.051 235.293 136.197 234.541 136.197L234.54 136.195Z" fill="white"/>
<path d="M70.166 118.709C77.0593 118.709 79.2917 117.573 79.2917 112.52V92.8195H73.9648V111.463C73.9648 114.361 72.7897 115.027 68.7555 115.027H59.7476C55.7134 115.027 54.4597 114.361 54.4597 111.463V92.8195H49.0938V112.52C49.0938 117.612 51.4438 118.709 58.2981 118.709H70.166ZM111.762 118.709V92.8195H106.63V112.129L89.0832 92.8195H83.4429V118.709H88.535V99.8299L106.474 118.709H111.761H111.762ZM121.357 118.709V92.8195H116.03V118.709H121.357Z" fill="white"/>
<defs>
<linearGradient id="paint0_linear_16_4563" x1="127.74" y1="100.937" x2="240.055" y2="103.463" gradientUnits="userSpaceOnUse">
<stop stop-color="#9C3FE4"/>
<stop offset="1" stop-color="#C65647"/>
</linearGradient>
<linearGradient id="paint1_linear_16_4563" x1="36.978" y1="59.3431" x2="55.0232" y2="59.4385" gradientUnits="userSpaceOnUse">
<stop stop-color="#9C3FE4"/>
<stop offset="1" stop-color="#C65647"/>
</linearGradient>
<linearGradient id="paint2_linear_16_4563" x1="85.4015" y1="59.3431" x2="103.446" y2="59.4385" gradientUnits="userSpaceOnUse">
<stop stop-color="#9C3FE4"/>
<stop offset="1" stop-color="#C65647"/>
</linearGradient>
<linearGradient id="paint3_linear_16_4563" x1="58.7849" y1="127.611" x2="79.419" y2="127.72" gradientUnits="userSpaceOnUse">
<stop stop-color="#9C3FE4"/>
<stop offset="1" stop-color="#C65647"/>
</linearGradient>
</defs>
</svg>
